PathFileType	4	(X/Y/Z)	17_2_109_p1_0-277.trc
DataRate	CameraRate	NumFrames	NumMarkers	Units	OrigDataRate	OrigDataStartFrame	OrigNumFrames
59.0	59.0	5	27	m	59.0	243	278
Frame#	Time	RHip			RKnee			RAnkle			RBigToe			RSmallToe			RHeel			LHip			LKnee			LAnkle			LBigToe			LSmallToe			LHeel			Neck			Head			Nose			RShoulder			RElbow			RWrist			RThumb			RIndex			RPinky			LShoulder			LElbow			LWrist			LThumb			LIndex			LPinky			
		X1	Y1	Z1	X2	Y2	Z2	X3	Y3	Z3	X4	Y4	Z4	X5	Y5	Z5	X6	Y6	Z6	X7	Y7	Z7	X8	Y8	Z8	X9	Y9	Z9	X10	Y10	Z10	X11	Y11	Z11	X12	Y12	Z12	X13	Y13	Z13	X14	Y14	Z14	X15	Y15	Z15	X16	Y16	Z16	X17	Y17	Z17	X18	Y18	Z18	X19	Y19	Z19	X20	Y20	Z20	X21	Y21	Z21	X22	Y22	Z22	X23	Y23	Z23	X24	Y24	Z24	X25	Y25	Z25	X26	Y26	Z26	X27	Y27	Z27	
243	4.11864406779661	0.2624512366146579	0.5802828890124329	0.8416260943272784	0.24818321842902494	0.5980872831214362	1.250574597679188	0.2306523644652907	0.7426488999960813	1.7043697809437517	0.229553220572636	0.493075929971329	1.7063786634517855	0.28705532483837093	0.5495166690998609	1.72684503000153	0.20809262718564706	0.8139808238869854	1.7549750848766947	0.04299551025457269	0.5428432126764721	0.8500114322671832	0.035482674448514	0.6105904394048557	1.271878737628967	0.03683945065212864	0.6907550122132096	1.7032612726570662	0.08115193884316065	0.46837820673625713	1.7046139902640347	0.01524196821959328	0.5455442493047737	1.735963226884417	0.04869970374230106	0.7887402475016059	1.7796300568499819	0.13340470164637508	0.4930757509813094	0.18974220069795616	0.13429176056075795	0.43931533742983997	-0.05553609538755983	0.14603666640455323	0.3531290150932353	0.07996154864157616	0.3043992731041908	0.5024723347038649	0.30245800063152767	0.3643794134438859	0.5884828291529652	0.5546014481245422	0.3958298185027769	0.513195944994135	0.817593940407184	0.34669918964365654	0.4678120237313757	0.922965787071125	0.3763651188364671	0.4295586382652185	0.9331275994021021	0.39865046754614913	0.5275144491575354	0.9356933696505485	-0.010120423413862644	0.5105504714544098	0.3188030327457473	-0.06831335386735463	0.5282881683846207	0.5965098965835076	-0.11225743693262935	0.4796965059202625	0.8506345136824806	-0.11936939253666973	0.4272978227871058	0.9515934869444622	-0.14585183499804416	0.45814452603040706	0.9853956680320418	-0.14820939953615334	0.48674710021977496	0.9800765022731416
244	4.135593220338983	0.262912756176028	0.5816662231947657	0.8460149089223692	0.2457563556802857	0.5851010872758046	1.2468004187008455	0.23061836407414574	0.7425515531657627	1.7043486551254756	0.2296677715353302	0.49321620781936915	1.7063525550056662	0.28727322281084516	0.5494089871264302	1.7266724495720267	0.20801395752402452	0.8138900040084416	1.754960709952424	0.04338064759650873	0.5446815814259867	0.8547316890271137	0.03500036691472789	0.6082541537489812	1.2667514640817839	0.03578190451560727	0.6911809972190306	1.708458796885216	0.08132411914080175	0.4682578392717103	1.704466938167645	0.022282312019954103	0.5314905753325507	1.728140051875873	0.056158614949338354	0.7708993322100394	1.7707484975568673	0.13344758971141904	0.49302710846955705	0.1897478794334186	0.13437626010196294	0.43917939287592456	-0.05560917379787135	0.1443988059326933	0.3423018639491116	0.08059139152261699	0.3111459060469703	0.5186373763787824	0.30229761845208714	0.36193237418451546	0.5758529371697464	0.5536571034996467	0.40566058360181323	0.5008969535144859	0.8186438989427843	0.35981135469250997	0.45651509978303223	0.926576750335549	0.38419896907711254	0.4433783069214286	0.9411093146088796	0.39778082349047034	0.5567294716720498	0.9545104324765629	-0.010117467344849968	0.5105217096444671	0.3188505406532994	-0.072038134471007	0.5250019465576689	0.5964702456381964	-0.12371381375037888	0.47576407383702457	0.8507221552900771	-0.11925313777840832	0.4287255240299261	0.9554697186282337	-0.14576088300018117	0.4600342303888057	0.9905603211327855	-0.14849647664877696	0.4872514223135878	0.9803530147533643
245	4.1525423728813555	0.26630405183446976	0.5542727617607028	0.8404299888152603	0.2457382741938367	0.5850101360443258	1.2464132632673828	0.23068320690701596	0.7424642436518412	1.7042375819413984	0.23218126679287607	0.4849142022867313	1.7019477470515672	0.28774180677725486	0.5491182963523469	1.7262810147046392	0.20800663603601247	0.8139935852839674	1.7549675066290946	0.04339532555487746	0.5443863122015571	0.8547914200916739	0.0350252048058886	0.6083613318356652	1.2666432431750423	0.037018910395904	0.6906849964579966	1.702979744443121	0.08146819141993564	0.467870202450844	1.704045325968836	0.022489718240197545	0.5310849347424482	1.7275925293866283	0.056243132338912	0.770562722244038	1.7706568904704711	0.13923623403293336	0.48120139754127167	0.18978820160698345	0.13835644677746092	0.4400693995574749	-0.05590562157089512	0.14605668138242206	0.35282013410050433	0.07999961249454905	0.31126654219155786	0.5185499249699163	0.30249281401935213	0.3652600616980976	0.5897780503997266	0.555182327053565	0.40626811148459013	0.5018278922893487	0.8148936805240632	0.3713072174457574	0.4730510856124995	0.9258001162934747	0.3968319164601017	0.4831885162617021	0.9510846853649035	0.3929080797695921	0.5722846115677762	0.9619007293861899	-0.005823892964482478	0.5129956116888724	0.3156032121160446	-0.07212849706616471	0.5248907542236053	0.5963533615064404	-0.12442142400984302	0.47548054975558407	0.8544579646151507	-0.11946878396584466	0.4283802905415804	0.9554901881918864	-0.15274253453466693	0.4716323175922692	0.9985904695178469	-0.14857425729341864	0.48886536935015446	0.9855375235495476
246	4.169491525423729	0.26234563620261697	0.5521974170665869	0.8404031561642303	0.24575821815047666	0.5850819806072043	1.24660213839943	0.2306717055908357	0.7425761256494694	1.704393785236215	0.23225702883964264	0.48558159742421597	1.7022221754958187	0.2876684028912229	0.5500005781608077	1.7267790660695406	0.20790500527926498	0.8141717134606835	1.7552135940636846	0.04334491950953342	0.5443354808111535	0.8548743919642882	0.03887887897620104	0.6106796694942502	1.267119493634155	0.03705967941796363	0.6907161721376874	1.7030354416180542	0.0824639040325421	0.467452640965764	1.700036195159192	0.023570774322187637	0.5306286824492017	1.7234162767856283	0.05625517390857513	0.770285241397879	1.7707456042293157	0.13932109843506302	0.4811643325503981	0.18978471786739987	0.1438230397078704	0.4287223464140105	-0.05486989324263764	0.14607388812466335	0.3526083333367351	0.07995048284901594	0.3163736075453927	0.5067889404460499	0.30510175392490624	0.36270897430377463	0.5776738943513565	0.5541632248982031	0.4139330071522194	0.5177029842426201	0.821363981985456	0.3819098496565795	0.502562738928422	0.935589166234456	0.4064475053245865	0.510075484729971	0.9571966675062079	0.39594068332091553	0.5855329133937333	0.9649486055022225	-0.00578422999339912	0.5130012504701563	0.31551825404245154	-0.07305470870927278	0.5119472764043558	0.5947513786783569	-0.12127672067365296	0.4481756820977264	0.8492012245830346	-0.11934854476408607	0.4295174372203209	0.9595632478171179	-0.14538695058868173	0.4601861711743634	1.000479144542261	-0.1555887843275632	0.5025591315576357	0.9982204760441241
247	4.186440677966102	0.2587807411440497	0.5793452534501152	0.8461900873280218	0.24821498437581863	0.598165696230509	1.2504710435504907	0.2306225406378529	0.7427660417956095	1.7044652207255444	0.22996991268672334	0.49347697740399343	1.7062639549525207	0.2875562135188424	0.5499379888305832	1.726777719690399	0.20785851386487456	0.8143455427714231	1.7553050813419793	0.04291018705964639	0.5425633871194661	0.8501752111508276	0.03932907758597464	0.6129766175725455	1.2722768162339286	0.03707025786359882	0.6907099919378742	1.7031414245240644	0.08336645743407956	0.48094232921141733	1.7064807016217436	0.022606841430984966	0.5310971570746705	1.7274217474431366	0.056275594911083866	0.7706649405374864	1.7709407620815554	0.13933793426042232	0.4811475577310868	0.18984480598166353	0.14386682989117766	0.42881090640559605	-0.054805245640579266	0.14618556091026824	0.3527213624140548	0.08003698851832441	0.31649585836943067	0.5065621936478528	0.3052041342769785	0.3634918602032494	0.5785348266705926	0.5657010253409237	0.42669011814839664	0.521834826582235	0.8220034353259645	0.38782331869586767	0.5282634198466976	0.9492434788134474	0.4104882395716614	0.5237584394851792	0.9679846909263423	0.4078053173502744	0.5551060410001524	0.9611713293882292	-0.00987344978321401	0.5104552369136346	0.31561197973463917	-0.07317288344995661	0.5115322188840901	0.594732304232268	-0.12240695551867845	0.43331711870239703	0.8460715313812648	-0.11948063807927868	0.42699132012477675	0.9555089592671357	-0.14174613423091448	0.4289432675604564	0.9916623513887881	-0.15565144550025695	0.48633175749106433	0.994187480871526
